<?xml version="1.0" encoding="UTF-8"?><svg xmlns="http://www.w3.org/2000/svg" xmlns:xlink="http://www.w3.org/1999/xlink" fill-opacity="1" color-rendering="auto" color-interpolation="auto" text-rendering="auto" stroke="black" stroke-linecap="square" width="877" stroke-miterlimit="10" shape-rendering="auto" stroke-opacity="1" fill="black" stroke-dasharray="none" font-weight="normal" stroke-width="1" height="1582" font-family="'Dialog'" font-style="normal" stroke-linejoin="miter" font-size="12px" stroke-dashoffset="0" image-rendering="auto">
  <!--Generated by ySVG 2.5-->
  <defs id="genericDefs"/>
  <g>
    <defs id="defs1">
      <clipPath clipPathUnits="userSpaceOnUse" id="clipPath1">
        <path d="M0 0 L877 0 L877 1582 L0 1582 L0 0 Z"/>
      </clipPath>
      <clipPath clipPathUnits="userSpaceOnUse" id="clipPath2">
        <path d="M309 200 L1186 200 L1186 1782 L309 1782 L309 200 Z"/>
      </clipPath>
    </defs>
    <g fill="white" text-rendering="geometricPrecision" shape-rendering="geometricPrecision" transform="translate(-309,-200)" stroke="white">
      <rect x="309" width="877" height="1582" y="200" clip-path="url(#clipPath2)" stroke="none"/>
    </g>
    <g fill="rgb(255,204,0)" text-rendering="geometricPrecision" shape-rendering="geometricPrecision" transform="matrix(1,0,0,1,-309,-200)" stroke="rgb(255,204,0)">
      <path d="M601 581.9893 L686.8177 495 L808.1823 495 L894 581.9893 L894 705.0107 L808.1823 792 L686.8177 792 L601 705.0107 Z" fill-rule="evenodd" clip-path="url(#clipPath2)" stroke="none"/>
    </g>
    <g text-rendering="geometricPrecision" stroke-miterlimit="1.45" shape-rendering="geometricPrecision" transform="matrix(1,0,0,1,-309,-200)" stroke-linecap="butt">
      <path fill="none" d="M601 581.9893 L686.8177 495 L808.1823 495 L894 581.9893 L894 705.0107 L808.1823 792 L686.8177 792 L601 705.0107 Z" fill-rule="evenodd" clip-path="url(#clipPath2)"/>
      <text x="728.3691" xml:space="preserve" y="647.6543" clip-path="url(#clipPath2)" font-family="sans-serif" stroke="none">Ursula</text>
    </g>
    <g fill="rgb(255,204,0)" text-rendering="geometricPrecision" shape-rendering="geometricPrecision" transform="matrix(1,0,0,1,-309,-200)" stroke="rgb(255,204,0)">
      <path d="M673.25 263.5345 L716.1582 215.5 L776.8418 215.5 L819.75 263.5345 L819.75 331.4656 L776.8418 379.5 L716.1582 379.5 L673.25 331.4656 Z" fill-rule="evenodd" clip-path="url(#clipPath2)" stroke="none"/>
    </g>
    <g text-rendering="geometricPrecision" stroke-miterlimit="1.45" shape-rendering="geometricPrecision" transform="matrix(1,0,0,1,-309,-200)" stroke-linecap="butt">
      <path fill="none" d="M673.25 263.5345 L716.1582 215.5 L776.8418 215.5 L819.75 263.5345 L819.75 331.4656 L776.8418 379.5 L716.1582 379.5 L673.25 331.4656 Z" fill-rule="evenodd" clip-path="url(#clipPath2)"/>
      <text x="719.9746" xml:space="preserve" y="301.6543" clip-path="url(#clipPath2)" font-family="sans-serif" stroke="none">Spieler 1</text>
    </g>
    <g fill="rgb(204,204,204)" text-rendering="geometricPrecision" shape-rendering="geometricPrecision" transform="matrix(1,0,0,1,-309,-200)" stroke="rgb(204,204,204)">
      <path d="M688 495 L717.25 379.5 L775.75 379.5 L805 495 Z" fill-rule="evenodd" clip-path="url(#clipPath2)" stroke="none"/>
    </g>
    <g text-rendering="geometricPrecision" stroke-miterlimit="1.45" shape-rendering="geometricPrecision" transform="matrix(1,0,0,1,-309,-200)" stroke-linecap="butt">
      <path fill="none" d="M688 495 L717.25 379.5 L775.75 379.5 L805 495 Z" fill-rule="evenodd" clip-path="url(#clipPath2)"/>
      <text x="721.0908" xml:space="preserve" y="441.4043" clip-path="url(#clipPath2)" font-family="sans-serif" stroke="none">Platform</text>
    </g>
    <g fill="rgb(255,204,0)" text-rendering="geometricPrecision" shape-rendering="geometricPrecision" transform="matrix(1,0,0,1,-309,-200)" stroke="rgb(255,204,0)">
      <path d="M1024 608.5345 L1066.9089 560.5 L1127.5911 560.5 L1170.5 608.5345 L1170.5 676.4655 L1127.5911 724.5 L1066.9089 724.5 L1024 676.4655 Z" fill-rule="evenodd" clip-path="url(#clipPath2)" stroke="none"/>
    </g>
    <g text-rendering="geometricPrecision" stroke-miterlimit="1.45" shape-rendering="geometricPrecision" transform="matrix(1,0,0,1,-309,-200)" stroke-linecap="butt">
      <path fill="none" d="M1024 608.5345 L1066.9089 560.5 L1127.5911 560.5 L1170.5 608.5345 L1170.5 676.4655 L1127.5911 724.5 L1066.9089 724.5 L1024 676.4655 Z" fill-rule="evenodd" clip-path="url(#clipPath2)"/>
      <text x="1070.7246" xml:space="preserve" y="646.6543" clip-path="url(#clipPath2)" font-family="sans-serif" stroke="none">Spieler 3</text>
    </g>
    <g fill="rgb(204,204,204)" text-rendering="geometricPrecision" shape-rendering="geometricPrecision" transform="matrix(1,0,0,1,-309,-200)" stroke="rgb(204,204,204)">
      <rect x="894" width="130" height="126" y="579.5" clip-path="url(#clipPath2)" stroke="none"/>
    </g>
    <g text-rendering="geometricPrecision" stroke-miterlimit="1.45" shape-rendering="geometricPrecision" transform="matrix(1,0,0,1,-309,-200)" stroke-linecap="butt">
      <rect fill="none" x="894" width="130" height="126" y="579.5" clip-path="url(#clipPath2)"/>
      <text x="933.5908" xml:space="preserve" y="646.6543" clip-path="url(#clipPath2)" font-family="sans-serif" stroke="none">Platform</text>
    </g>
    <g fill="rgb(204,204,204)" text-rendering="geometricPrecision" shape-rendering="geometricPrecision" transform="matrix(1,0,0,1,-309,-200)" stroke="rgb(204,204,204)">
      <rect x="471" width="130" height="126" y="575.25" clip-path="url(#clipPath2)" stroke="none"/>
    </g>
    <g text-rendering="geometricPrecision" stroke-miterlimit="1.45" shape-rendering="geometricPrecision" transform="matrix(1,0,0,1,-309,-200)" stroke-linecap="butt">
      <rect fill="none" x="471" width="130" height="126" y="575.25" clip-path="url(#clipPath2)"/>
      <text x="510.5908" xml:space="preserve" y="642.4043" clip-path="url(#clipPath2)" font-family="sans-serif" stroke="none">Platform</text>
    </g>
    <g fill="rgb(255,204,0)" text-rendering="geometricPrecision" shape-rendering="geometricPrecision" transform="matrix(1,0,0,1,-309,-200)" stroke="rgb(255,204,0)">
      <path d="M324.5 604.2845 L367.4088 556.25 L428.0912 556.25 L471 604.2845 L471 672.2155 L428.0912 720.25 L367.4088 720.25 L324.5 672.2155 Z" fill-rule="evenodd" clip-path="url(#clipPath2)" stroke="none"/>
    </g>
    <g text-rendering="geometricPrecision" stroke-miterlimit="1.45" shape-rendering="geometricPrecision" transform="matrix(1,0,0,1,-309,-200)" stroke-linecap="butt">
      <path fill="none" d="M324.5 604.2845 L367.4088 556.25 L428.0912 556.25 L471 604.2845 L471 672.2155 L428.0912 720.25 L367.4088 720.25 L324.5 672.2155 Z" fill-rule="evenodd" clip-path="url(#clipPath2)"/>
      <text x="371.2246" xml:space="preserve" y="642.4043" clip-path="url(#clipPath2)" font-family="sans-serif" stroke="none">Spieler 2</text>
    </g>
    <g fill="red" text-rendering="geometricPrecision" shape-rendering="geometricPrecision" transform="matrix(1,0,0,1,-309,-200)" stroke="red">
      <path d="M857 637.5 L860.4442 630.8149 L867.6066 633.1066 L865.3149 625.9442 L872 622.5 L865.3149 619.0558 L867.6066 611.8934 L860.4442 614.1851 L857 607.5 L853.5558 614.1851 L846.3934 611.8934 L848.6851 619.0558 L842 622.5 L848.6851 625.9442 L846.3934 633.1066 L853.5558 630.8149 Z" fill-rule="evenodd" clip-path="url(#clipPath2)" stroke="none"/>
    </g>
    <g text-rendering="geometricPrecision" stroke-miterlimit="1.45" shape-rendering="geometricPrecision" transform="matrix(1,0,0,1,-309,-200)" stroke-linecap="butt">
      <path fill="none" d="M857 637.5 L860.4442 630.8149 L867.6066 633.1066 L865.3149 625.9442 L872 622.5 L865.3149 619.0558 L867.6066 611.8934 L860.4442 614.1851 L857 607.5 L853.5558 614.1851 L846.3934 611.8934 L848.6851 619.0558 L842 622.5 L848.6851 625.9442 L846.3934 633.1066 L853.5558 630.8149 Z" fill-rule="evenodd" clip-path="url(#clipPath2)"/>
    </g>
    <g fill="rgb(255,204,0)" text-rendering="geometricPrecision" shape-rendering="geometricPrecision" transform="matrix(1,0,0,1,-309,-200)" stroke="rgb(255,204,0)">
      <circle r="15" clip-path="url(#clipPath2)" cx="1075" cy="607.5" stroke="none"/>
    </g>
    <g text-rendering="geometricPrecision" stroke-miterlimit="1.45" shape-rendering="geometricPrecision" transform="matrix(1,0,0,1,-309,-200)" stroke-linecap="butt">
      <circle fill="none" r="15" clip-path="url(#clipPath2)" cx="1075" cy="607.5"/>
    </g>
    <g fill="red" text-rendering="geometricPrecision" shape-rendering="geometricPrecision" transform="matrix(1,0,0,1,-309,-200)" stroke="red">
      <path d="M623 625.5 L626.4442 618.8149 L633.6066 621.1066 L631.3149 613.9442 L638 610.5 L631.3149 607.0558 L633.6066 599.8934 L626.4442 602.1851 L623 595.5 L619.5558 602.1851 L612.3934 599.8934 L614.6851 607.0558 L608 610.5 L614.6851 613.9442 L612.3934 621.1066 L619.5558 618.8149 Z" fill-rule="evenodd" clip-path="url(#clipPath2)" stroke="none"/>
    </g>
    <g text-rendering="geometricPrecision" stroke-miterlimit="1.45" shape-rendering="geometricPrecision" transform="matrix(1,0,0,1,-309,-200)" stroke-linecap="butt">
      <path fill="none" d="M623 625.5 L626.4442 618.8149 L633.6066 621.1066 L631.3149 613.9442 L638 610.5 L631.3149 607.0558 L633.6066 599.8934 L626.4442 602.1851 L623 595.5 L619.5558 602.1851 L612.3934 599.8934 L614.6851 607.0558 L608 610.5 L614.6851 613.9442 L612.3934 621.1066 L619.5558 618.8149 Z" fill-rule="evenodd" clip-path="url(#clipPath2)"/>
    </g>
    <g fill="rgb(204,255,0)" text-rendering="geometricPrecision" shape-rendering="geometricPrecision" transform="matrix(1,0,0,1,-309,-200)" stroke="rgb(204,255,0)">
      <circle r="15" clip-path="url(#clipPath2)" cx="824" cy="710.5" stroke="none"/>
    </g>
    <g text-rendering="geometricPrecision" stroke-miterlimit="1.45" shape-rendering="geometricPrecision" transform="matrix(1,0,0,1,-309,-200)" stroke-linecap="butt">
      <circle fill="none" r="15" clip-path="url(#clipPath2)" cx="824" cy="710.5"/>
    </g>
    <g fill="rgb(204,255,0)" text-rendering="geometricPrecision" shape-rendering="geometricPrecision" transform="matrix(1,0,0,1,-309,-200)" stroke="rgb(204,255,0)">
      <circle r="15" clip-path="url(#clipPath2)" cx="710" cy="547.5" stroke="none"/>
    </g>
    <g text-rendering="geometricPrecision" stroke-miterlimit="1.45" shape-rendering="geometricPrecision" transform="matrix(1,0,0,1,-309,-200)" stroke-linecap="butt">
      <circle fill="none" r="15" clip-path="url(#clipPath2)" cx="710" cy="547.5"/>
    </g>
    <g fill="rgb(204,255,0)" text-rendering="geometricPrecision" shape-rendering="geometricPrecision" transform="matrix(1,0,0,1,-309,-200)" stroke="rgb(204,255,0)">
      <circle r="15" clip-path="url(#clipPath2)" cx="672" cy="710.5" stroke="none"/>
    </g>
    <g text-rendering="geometricPrecision" stroke-miterlimit="1.45" shape-rendering="geometricPrecision" transform="matrix(1,0,0,1,-309,-200)" stroke-linecap="butt">
      <circle fill="none" r="15" clip-path="url(#clipPath2)" cx="672" cy="710.5"/>
    </g>
    <g fill="red" text-rendering="geometricPrecision" shape-rendering="geometricPrecision" transform="matrix(1,0,0,1,-309,-200)" stroke="red">
      <path d="M765 541.5 L768.4442 534.8149 L775.6066 537.1066 L773.3149 529.9442 L780 526.5 L773.3149 523.0558 L775.6066 515.8934 L768.4442 518.1851 L765 511.5 L761.5558 518.1851 L754.3934 515.8934 L756.6851 523.0558 L750 526.5 L756.6851 529.9442 L754.3934 537.1066 L761.5558 534.8149 Z" fill-rule="evenodd" clip-path="url(#clipPath2)" stroke="none"/>
    </g>
    <g text-rendering="geometricPrecision" stroke-miterlimit="1.45" shape-rendering="geometricPrecision" transform="matrix(1,0,0,1,-309,-200)" stroke-linecap="butt">
      <path fill="none" d="M765 541.5 L768.4442 534.8149 L775.6066 537.1066 L773.3149 529.9442 L780 526.5 L773.3149 523.0558 L775.6066 515.8934 L768.4442 518.1851 L765 511.5 L761.5558 518.1851 L754.3934 515.8934 L756.6851 523.0558 L750 526.5 L756.6851 529.9442 L754.3934 537.1066 L761.5558 534.8149 Z" fill-rule="evenodd" clip-path="url(#clipPath2)"/>
    </g>
    <g fill="rgb(255,221,221)" text-rendering="geometricPrecision" shape-rendering="geometricPrecision" transform="matrix(1,0,0,1,-309,-200)" stroke="rgb(255,221,221)">
      <rect x="657" width="190" height="30" y="478.5" clip-path="url(#clipPath2)" stroke="none"/>
    </g>
    <g text-rendering="geometricPrecision" stroke-miterlimit="1.45" shape-rendering="geometricPrecision" transform="matrix(1,0,0,1,-309,-200)" stroke-linecap="butt">
      <rect fill="none" x="657" width="190" height="30" y="478.5" clip-path="url(#clipPath2)"/>
      <text x="736.6074" xml:space="preserve" y="497.6543" clip-path="url(#clipPath2)" font-family="sans-serif" stroke="none">Zaun</text>
    </g>
    <g fill="rgb(255,221,221)" text-rendering="geometricPrecision" shape-rendering="geometricPrecision" transform="matrix(1,0,0,1,-309,-200)" stroke="rgb(255,221,221)">
      <rect x="563" width="45" height="173" y="551.75" clip-path="url(#clipPath2)" stroke="none"/>
    </g>
    <g text-rendering="geometricPrecision" stroke-miterlimit="1.45" shape-rendering="geometricPrecision" transform="matrix(1,0,0,1,-309,-200)" stroke-linecap="butt">
      <rect fill="none" x="563" width="45" height="173" y="551.75" clip-path="url(#clipPath2)"/>
      <text x="570.1074" xml:space="preserve" y="642.4043" clip-path="url(#clipPath2)" font-family="sans-serif" stroke="none">Zaun</text>
    </g>
    <g fill="rgb(204,255,0)" text-rendering="geometricPrecision" shape-rendering="geometricPrecision" transform="matrix(1,0,0,1,-309,-200)" stroke="rgb(204,255,0)">
      <circle r="15" clip-path="url(#clipPath2)" cx="426" cy="598.5" stroke="none"/>
    </g>
    <g text-rendering="geometricPrecision" stroke-miterlimit="1.45" shape-rendering="geometricPrecision" transform="matrix(1,0,0,1,-309,-200)" stroke-linecap="butt">
      <circle fill="none" r="15" clip-path="url(#clipPath2)" cx="426" cy="598.5"/>
    </g>
    <g fill="rgb(255,204,0)" text-rendering="geometricPrecision" shape-rendering="geometricPrecision" transform="matrix(1,0,0,1,-309,-200)" stroke="rgb(255,204,0)">
      <rect x="682.5" width="130" height="432.5917" y="792" clip-path="url(#clipPath2)" stroke="none"/>
    </g>
    <g text-rendering="geometricPrecision" stroke-miterlimit="1.45" shape-rendering="geometricPrecision" transform="matrix(1,0,0,1,-309,-200)" stroke-linecap="butt">
      <rect fill="none" x="682.5" width="130" height="432.5917" y="792" clip-path="url(#clipPath2)"/>
    </g>
    <g fill="rgb(0,204,255)" text-rendering="geometricPrecision" shape-rendering="geometricPrecision" transform="matrix(1,0,0,1,-309,-200)" stroke="rgb(0,204,255)">
      <path d="M688.7281 1035.832 L697.515 1027.0452 L709.9414 1027.0452 L718.7281 1035.832 L718.7281 1048.2584 L709.9414 1057.0452 L697.515 1057.0452 L688.7281 1048.2584 Z" fill-rule="evenodd" clip-path="url(#clipPath2)" stroke="none"/>
    </g>
    <g text-rendering="geometricPrecision" stroke-miterlimit="1.45" shape-rendering="geometricPrecision" transform="matrix(1,0,0,1,-309,-200)" stroke-linecap="butt">
      <path fill="none" d="M688.7281 1035.832 L697.515 1027.0452 L709.9414 1027.0452 L718.7281 1035.832 L718.7281 1048.2584 L709.9414 1057.0452 L697.515 1057.0452 L688.7281 1048.2584 Z" fill-rule="evenodd" clip-path="url(#clipPath2)"/>
    </g>
    <g fill="rgb(255,221,221)" text-rendering="geometricPrecision" shape-rendering="geometricPrecision" transform="matrix(1,0,0,1,-309,-200)" stroke="rgb(255,221,221)">
      <rect x="869" width="45" height="173" y="556" clip-path="url(#clipPath2)" stroke="none"/>
    </g>
    <g text-rendering="geometricPrecision" stroke-miterlimit="1.45" shape-rendering="geometricPrecision" transform="matrix(1,0,0,1,-309,-200)" stroke-linecap="butt">
      <rect fill="none" x="869" width="45" height="173" y="556" clip-path="url(#clipPath2)"/>
      <text x="876.1074" xml:space="preserve" y="646.6543" clip-path="url(#clipPath2)" font-family="sans-serif" stroke="none">Zaun</text>
    </g>
    <g fill="rgb(204,204,204)" text-rendering="geometricPrecision" shape-rendering="geometricPrecision" transform="matrix(1,0,0,1,-309,-200)" stroke="rgb(204,204,204)">
      <rect x="682.5" width="130" height="126" y="1224.5917" clip-path="url(#clipPath2)" stroke="none"/>
    </g>
    <g text-rendering="geometricPrecision" stroke-miterlimit="1.45" shape-rendering="geometricPrecision" transform="matrix(1,0,0,1,-309,-200)" stroke-linecap="butt">
      <rect fill="none" x="682.5" width="130" height="126" y="1224.5917" clip-path="url(#clipPath2)"/>
      <text x="722.0908" xml:space="preserve" y="1291.746" clip-path="url(#clipPath2)" font-family="sans-serif" stroke="none">Platform</text>
    </g>
    <g fill="rgb(204,204,204)" text-rendering="geometricPrecision" shape-rendering="geometricPrecision" transform="matrix(1,0,0,1,-309,-200)" stroke="rgb(204,204,204)">
      <rect x="682.5" width="130" height="126" y="1350.5917" clip-path="url(#clipPath2)" stroke="none"/>
    </g>
    <g text-rendering="geometricPrecision" stroke-miterlimit="1.45" shape-rendering="geometricPrecision" transform="matrix(1,0,0,1,-309,-200)" stroke-linecap="butt">
      <rect fill="none" x="682.5" width="130" height="126" y="1350.5917" clip-path="url(#clipPath2)"/>
      <text x="722.0908" xml:space="preserve" y="1417.746" clip-path="url(#clipPath2)" font-family="sans-serif" stroke="none">Platform</text>
    </g>
    <g fill="rgb(204,204,204)" text-rendering="geometricPrecision" shape-rendering="geometricPrecision" transform="matrix(1,0,0,1,-309,-200)" stroke="rgb(204,204,204)">
      <rect x="682.5" width="130" height="126" y="1476.5917" clip-path="url(#clipPath2)" stroke="none"/>
    </g>
    <g text-rendering="geometricPrecision" stroke-miterlimit="1.45" shape-rendering="geometricPrecision" transform="matrix(1,0,0,1,-309,-200)" stroke-linecap="butt">
      <rect fill="none" x="682.5" width="130" height="126" y="1476.5917" clip-path="url(#clipPath2)"/>
      <text x="722.0908" xml:space="preserve" y="1543.746" clip-path="url(#clipPath2)" font-family="sans-serif" stroke="none">Platform</text>
    </g>
    <g fill="rgb(0,204,255)" text-rendering="geometricPrecision" shape-rendering="geometricPrecision" transform="matrix(1,0,0,1,-309,-200)" stroke="rgb(0,204,255)">
      <path d="M764.9219 916.2867 L773.7087 907.5001 L786.1351 907.5001 L794.9219 916.2867 L794.9219 928.7131 L786.1351 937.5001 L773.7087 937.5001 L764.9219 928.7131 Z" fill-rule="evenodd" clip-path="url(#clipPath2)" stroke="none"/>
    </g>
    <g text-rendering="geometricPrecision" stroke-miterlimit="1.45" shape-rendering="geometricPrecision" transform="matrix(1,0,0,1,-309,-200)" stroke-linecap="butt">
      <path fill="none" d="M764.9219 916.2867 L773.7087 907.5001 L786.1351 907.5001 L794.9219 916.2867 L794.9219 928.7131 L786.1351 937.5001 L773.7087 937.5001 L764.9219 928.7131 Z" fill-rule="evenodd" clip-path="url(#clipPath2)"/>
    </g>
    <g fill="rgb(0,204,255)" text-rendering="geometricPrecision" shape-rendering="geometricPrecision" transform="matrix(1,0,0,1,-309,-200)" stroke="rgb(0,204,255)">
      <path d="M764.9219 1139.7695 L773.7087 1130.9827 L786.1351 1130.9827 L794.9219 1139.7695 L794.9219 1152.1959 L786.1351 1160.9827 L773.7087 1160.9827 L764.9219 1152.1959 Z" fill-rule="evenodd" clip-path="url(#clipPath2)" stroke="none"/>
    </g>
    <g text-rendering="geometricPrecision" stroke-miterlimit="1.45" shape-rendering="geometricPrecision" transform="matrix(1,0,0,1,-309,-200)" stroke-linecap="butt">
      <path fill="none" d="M764.9219 1139.7695 L773.7087 1130.9827 L786.1351 1130.9827 L794.9219 1139.7695 L794.9219 1152.1959 L786.1351 1160.9827 L773.7087 1160.9827 L764.9219 1152.1959 Z" fill-rule="evenodd" clip-path="url(#clipPath2)"/>
    </g>
    <g fill="rgb(255,204,0)" text-rendering="geometricPrecision" shape-rendering="geometricPrecision" transform="matrix(1,0,0,1,-309,-200)" stroke="rgb(255,204,0)">
      <path d="M666 1650.6262 L708.9088 1602.5917 L769.5912 1602.5917 L812.5 1650.6262 L812.5 1718.5573 L769.5912 1766.5917 L708.9088 1766.5917 L666 1718.5573 Z" fill-rule="evenodd" clip-path="url(#clipPath2)" stroke="none"/>
    </g>
    <g text-rendering="geometricPrecision" stroke-miterlimit="1.45" shape-rendering="geometricPrecision" transform="matrix(1,0,0,1,-309,-200)" stroke-linecap="butt">
      <path fill="none" d="M666 1650.6262 L708.9088 1602.5917 L769.5912 1602.5917 L812.5 1650.6262 L812.5 1718.5573 L769.5912 1766.5917 L708.9088 1766.5917 L666 1718.5573 Z" fill-rule="evenodd" clip-path="url(#clipPath2)"/>
      <text x="728.1143" xml:space="preserve" y="1688.746" clip-path="url(#clipPath2)" font-family="sans-serif" stroke="none">Ziel</text>
      <path fill="none" d="M894 642.8073 L893.9642 642.8075" clip-path="url(#clipPath2)"/>
      <path d="M893.9642 642.8075 L905.9897 647.746 L902.9641 642.7614 L905.9385 637.7462 Z" clip-path="url(#clipPath2)" stroke="none"/>
      <path fill="none" d="M659.0813 718.1228 L511 805.5 L509 805.5 L524.5546 709.1478" clip-path="url(#clipPath2)"/>
      <path d="M525.8296 701.25 L518.9811 712.2998 L524.3953 710.1349 L528.8533 713.8935 Z" clip-path="url(#clipPath2)" stroke="none"/>
      <text x="450.6655" xml:space="preserve" y="762.2797" clip-path="url(#clipPath2)" font-family="sans-serif" stroke="none">Knopf schaltet Platform ein</text>
      <path fill="none" d="M436.4355 587.7251 L549 471.5 L552 471.5 L614.9407 594.722" clip-path="url(#clipPath2)"/>
      <path d="M618.5798 601.8464 L617.5739 588.8854 L614.4858 593.8315 L608.6685 593.4343 Z" clip-path="url(#clipPath2)" stroke="none"/>
      <text x="434.6246" xml:space="preserve" y="524.6621" clip-path="url(#clipPath2)" font-family="sans-serif" stroke="none">Knopf explodiert Zaun</text>
      <path fill="none" d="M688.7724 1047.3507 L521.9509 1106.5298 L521.9509 1106.5298 L521.9509 1413.5917 L675.5159 1499.3787" clip-path="url(#clipPath2)"/>
      <path d="M682.4999 1503.2803 L674.4623 1493.0629 L674.6428 1498.891 L669.5853 1501.793 Z" clip-path="url(#clipPath2)" stroke="none"/>
      <path fill="none" d="M794.9685 925.7283 L973.1228 963.9517 L973.1228 963.9517 L959 1174.8892 L819.5602 1249.1927" clip-path="url(#clipPath2)"/>
      <path d="M812.5 1252.955 L825.4416 1251.7242 L820.4427 1248.7225 L820.7389 1242.899 Z" clip-path="url(#clipPath2)" stroke="none"/>
      <text x="698.9448" xml:space="preserve" y="978.3217" clip-path="url(#clipPath2)" font-family="sans-serif" stroke="none">Steht ein Spieler neben dem Knopf aktiviert es die Platfotm</text>
      <path fill="none" d="M764.9382 1148.582 L602.0291 1176.8423 L602.0291 1176.8423 L585.5 1333.0923 L675.3358 1377.7325" clip-path="url(#clipPath2)"/>
      <path d="M682.5 1381.2925 L673.9786 1371.4749 L674.4402 1377.2876 L669.5286 1380.4302 Z" clip-path="url(#clipPath2)" stroke="none"/>
    </g>
  </g>
</svg>
